<svg id="Layer_1" data-name="Layer 1" xmlns="http://www.w3.org/2000/svg" viewBox="0 0 362.5 717.83"><defs><style>.cls-1,.cls-23{fill:none;}.cls-1{stroke:#31a1b7;stroke-width:2px;}.cls-1,.cls-18,.cls-23{stroke-miterlimit:10;}.cls-2{fill:#31a1b7;}.cls-3{font-size:10px;font-family:MyriadPro-Regular, Myriad Pro;}.cls-17,.cls-3{fill:#231f20;}.cls-4{letter-spacing:0.01em;}.cls-5{letter-spacing:-0.01em;}.cls-6{letter-spacing:-0.01em;}.cls-7{letter-spacing:-0.01em;}.cls-8{letter-spacing:-0.01em;}.cls-9{letter-spacing:-0.01em;}.cls-10{letter-spacing:-0.04em;}.cls-11{letter-spacing:-0.07em;}.cls-12{letter-spacing:-0.05em;}.cls-13{letter-spacing:0.01em;}.cls-14{letter-spacing:-0.01em;}.cls-15{letter-spacing:0em;}.cls-16{letter-spacing:0.01em;}.cls-18{fill:#fff;stroke:#231f20;}.cls-19{letter-spacing:0.04em;}.cls-20{letter-spacing:-0.04em;}.cls-21{letter-spacing:-0.03em;}.cls-22{letter-spacing:-0.09em;}.cls-23{stroke:#000;stroke-linecap:round;stroke-width:6px;}.cls-24{letter-spacing:0em;}.cls-25{letter-spacing:0em;}.cls-26{letter-spacing:-0.04em;}.cls-27{letter-spacing:-0.08em;}.cls-28{letter-spacing:-0.09em;}.cls-29{letter-spacing:0em;}.cls-30{letter-spacing:-0.03em;}</style></defs><polyline class="cls-1" points="299.82 534.01 323.86 534.01 323.86 565.37"/><polygon class="cls-2" points="318.87 563.91 323.86 572.54 328.85 563.91 318.87 563.91"/><polyline class="cls-1" points="161.39 534.01 134.48 534.01 134.48 506.08"/><polygon class="cls-2" points="139.47 507.54 134.48 498.91 129.49 507.54 139.47 507.54"/><polyline class="cls-1" points="216.81 640.71 323.86 640.71 323.86 611.76"/><polygon class="cls-2" points="218.27 645.7 209.63 640.71 218.27 635.73 218.27 645.7"/><text class="cls-3" transform="translate(183.78 535.3)"><tspan class="cls-4">M</tspan><tspan x="8.1" y="0">ap sea</tspan><tspan class="cls-5" x="34.52" y="0">r</tspan><tspan x="37.69" y="0">ch </tspan><tspan class="cls-6" x="49.84" y="0">c</tspan><tspan x="54.26" y="0">omple</tspan><tspan class="cls-7" x="81.15" y="0">t</tspan><tspan x="84.4" y="0">e?</tspan></text><polygon class="cls-1" points="284.07 550.57 177.14 550.57 161.39 534.01 177.14 517.45 284.07 517.45 299.82 534.01 284.07 550.57"/><rect class="cls-1" x="182.11" y="629.52" width="22.81" height="22.81" transform="translate(-396.52 324.55) rotate(-45)"/><text class="cls-3" transform="translate(89.88 64.31)"><tspan class="cls-6">U</tspan><tspan x="6.41" y="0">ser is on the map page and needs </tspan><tspan class="cls-6" x="147.96" y="0">t</tspan><tspan x="151.21" y="0">o sc</tspan><tspan class="cls-8" x="167.26" y="0">r</tspan><tspan x="170.43" y="0">oll d</tspan><tspan class="cls-9" x="188.4" y="0">o</tspan><tspan x="193.82" y="0">wn </tspan><tspan x="4.77" y="12">the page </tspan><tspan class="cls-6" x="43.98" y="12">t</tspan><tspan x="47.23" y="12">o the</tspan><tspan class="cls-10" x="68.71" y="12"> </tspan><tspan class="cls-11" x="70.42" y="12">T</tspan><tspan x="74.68" y="12">esting </tspan><tspan class="cls-12" x="102.56" y="12">F</tspan><tspan x="106.98" y="12">acili</tspan><tspan class="cls-13" x="123.32" y="12">t</tspan><tspan x="126.72" y="12">y </tspan><tspan class="cls-14" x="133.55" y="12">L</tspan><tspan x="138.13" y="12">oc</tspan><tspan class="cls-15" x="148.1" y="12">a</tspan><tspan x="152.88" y="12">tion se</tspan><tspan class="cls-16" x="180.66" y="12">c</tspan><tspan x="185.27" y="12">tion </tspan></text><circle class="cls-17" cx="193.78" cy="19.94" r="8.06"/><circle class="cls-18" cx="193.85" cy="697.33" r="8.06"/><circle class="cls-17" cx="193.85" cy="697.33" r="4.75"/><line class="cls-1" x1="193.78" y1="27.99" x2="193.78" y2="45.66"/><polygon class="cls-2" points="188.79 44.2 193.78 52.83 198.76 44.2 188.79 44.2"/><line class="cls-1" x1="120.89" y1="82.63" x2="120.89" y2="100.3"/><polygon class="cls-2" points="115.9 98.84 120.89 107.47 125.87 98.84 115.9 98.84"/><line class="cls-1" x1="267.36" y1="82.63" x2="267.36" y2="100.3"/><polygon class="cls-2" points="262.38 98.84 267.36 107.47 272.35 98.84 262.38 98.84"/><rect class="cls-1" x="81.96" y="53.57" width="223.64" height="28.33" rx="11.75"/><text class="cls-3" transform="translate(60.48 162.18)"><tspan class="cls-6">U</tspan><tspan x="6.41" y="0">ser can input pos</tspan><tspan class="cls-6" x="77.4" y="0">tc</tspan><tspan x="85.07" y="0">ode i</tspan><tspan class="cls-15" x="105.67" y="0">n</tspan><tspan class="cls-6" x="111.18" y="0">t</tspan><tspan x="114.43" y="0">o </tspan><tspan x="9.15" y="12">the sea</tspan><tspan class="cls-5" x="38.92" y="12">r</tspan><tspan x="42.09" y="12">ch bar </tspan><tspan class="cls-15" x="70.14" y="12">a</tspan><tspan x="74.92" y="12">t the </tspan><tspan class="cls-7" x="96.34" y="12">t</tspan><tspan x="99.59" y="12">op</tspan></text><line class="cls-1" x1="120.55" y1="113.79" x2="120.55" y2="143.45"/><polygon class="cls-2" points="115.57 141.99 120.55 150.63 125.54 141.99 115.57 141.99"/><line class="cls-1" x1="151.32" y1="181.43" x2="151.32" y2="212.1"/><polygon class="cls-2" points="146.33 210.64 151.32 219.27 156.3 210.64 146.33 210.64"/><line class="cls-1" x1="193.6" y1="657.62" x2="193.6" y2="675.28"/><polygon class="cls-2" points="188.62 673.82 193.6 682.46 198.59 673.82 188.62 673.82"/><rect class="cls-1" x="52.35" y="151.37" width="136.34" height="28.33" rx="11.75"/><text class="cls-3" transform="translate(92.04 416.64)"><tspan class="cls-6">U</tspan><tspan x="6.41" y="0">ser can sele</tspan><tspan class="cls-16" x="54.08" y="0">c</tspan><tspan x="58.69" y="0">t d</tspan><tspan class="cls-5" x="69.76" y="0">r</tspan><tspan x="72.93" y="0">op </tspan><tspan x="-3.55" y="12">d</tspan><tspan class="cls-9" x="2.09" y="12">o</tspan><tspan x="7.51" y="12">wn and change the </tspan><tspan class="cls-19" x="10.5" y="24">“</tspan><tspan class="cls-20" x="14.44" y="24">T</tspan><tspan x="19.01" y="24">yp</tspan><tspan class="cls-21" x="29.41" y="24">e</tspan><tspan class="cls-22" x="34.17" y="24">”</tspan><tspan x="36.85" y="24"> </tspan><tspan class="cls-6" x="38.97" y="24">t</tspan><tspan x="42.22" y="24">o hours </tspan></text><rect class="cls-1" x="82.1" y="403.83" width="104.77" height="43.66" rx="11.75"/><line class="cls-23" x1="40.99" y1="110.13" x2="345.82" y2="110.13"/><line class="cls-23" x1="40.99" y1="292.33" x2="345.82" y2="292.33"/><line class="cls-1" x1="193.78" y1="250.07" x2="193.78" y2="281.74"/><polygon class="cls-2" points="188.79 280.28 193.78 288.92 198.76 280.28 188.79 280.28"/><line class="cls-1" x1="193.78" y1="295.74" x2="193.78" y2="327.41"/><polygon class="cls-2" points="188.79 325.95 193.78 334.58 198.76 325.95 188.79 325.95"/><text class="cls-3" transform="translate(207.2 162.18)"><tspan class="cls-24">A</tspan><tspan x="6.09" y="0">l</tspan><tspan class="cls-6" x="8.45" y="0">t</tspan><tspan x="11.7" y="0">e</tspan><tspan class="cls-25" x="16.71" y="0">r</tspan><tspan x="20.02" y="0">n</tspan><tspan class="cls-15" x="25.57" y="0">a</tspan><tspan x="30.35" y="0">ti</tspan><tspan class="cls-5" x="36" y="0">v</tspan><tspan x="40.71" y="0">el</tspan><tspan class="cls-26" x="48.08" y="0">y</tspan><tspan x="52.4" y="0">, users can </tspan><tspan class="cls-9" x="97.39" y="0">z</tspan><tspan x="101.6" y="0">oom in </tspan><tspan x="-2.72" y="12">&amp; out and pan a</tspan><tspan class="cls-5" x="63" y="12">r</tspan><tspan x="66.17" y="12">ound the sc</tspan><tspan class="cls-8" x="114.91" y="12">r</tspan><tspan x="118.08" y="12">een</tspan></text><line class="cls-1" x1="267.48" y1="113.79" x2="267.48" y2="143.45"/><polygon class="cls-2" points="262.49 141.99 267.48 150.63 272.46 141.99 262.49 141.99"/><line class="cls-1" x1="239.23" y1="181.43" x2="239.23" y2="212.1"/><polygon class="cls-2" points="234.25 210.64 239.23 219.27 244.22 210.64 234.25 210.64"/><line class="cls-1" x1="135.07" y1="364.65" x2="135.07" y2="395.32"/><polygon class="cls-2" points="130.08 393.86 135.06 402.49 140.05 393.86 130.08 393.86"/><line class="cls-1" x1="135.07" y1="454.67" x2="135.07" y2="468.31"/><polygon class="cls-2" points="130.08 456.13 135.06 447.49 140.05 456.13 130.08 456.13"/><line class="cls-1" x1="231.61" y1="364.65" x2="231.61" y2="506.69"/><polygon class="cls-2" points="226.62 505.23 231.61 513.86 236.6 505.23 226.62 505.23"/><rect class="cls-1" x="199.28" y="151.37" width="150.28" height="28.33" rx="11.75"/><text class="cls-3" transform="translate(151.8 230.86)"><tspan class="cls-6">U</tspan><tspan x="6.41" y="0">ser </tspan><tspan class="cls-8" x="20.77" y="0">r</tspan><tspan x="23.94" y="0">eaches desi</tspan><tspan class="cls-8" x="71.84" y="0">r</tspan><tspan x="75.01" y="0">ed </tspan><tspan x="-13.07" y="12">loc</tspan><tspan class="cls-15" x="-0.75" y="12">a</tspan><tspan x="4.03" y="12">tion and ma</tspan><tspan class="cls-6" x="54.13" y="12">g</tspan><tspan x="59.66" y="12">nific</tspan><tspan class="cls-15" x="77.26" y="12">a</tspan><tspan x="82.04" y="12">tion</tspan></text><rect class="cls-1" x="131.48" y="220.05" width="126.47" height="28.33" rx="11.75"/><text class="cls-3" transform="translate(112.27 346.39)"><tspan class="cls-25">D</tspan><tspan x="6.7" y="0">efault st</tspan><tspan class="cls-15" x="40.02" y="0">a</tspan><tspan class="cls-6" x="44.8" y="0">t</tspan><tspan x="48.05" y="0">e sh</tspan><tspan class="cls-9" x="64.69" y="0">o</tspan><tspan class="cls-6" x="70.11" y="0">w</tspan><tspan x="77.41" y="0">s</tspan><tspan class="cls-27" x="81.37" y="0"> </tspan><tspan class="cls-19" x="82.66" y="0">“</tspan><tspan class="cls-20" x="86.6" y="0">T</tspan><tspan x="91.17" y="0">yp</tspan><tspan class="cls-21" x="101.57" y="0">e</tspan><tspan class="cls-28" x="106.33" y="0">”</tspan><tspan x="109.01" y="0" xml:space="preserve"> which sh</tspan><tspan class="cls-9" x="148.04" y="0">o</tspan><tspan class="cls-7" x="153.46" y="0">w</tspan><tspan x="160.76" y="0">s </tspan><tspan x="-3.39" y="12">d</tspan><tspan class="cls-25" x="2.25" y="12">r</tspan><tspan x="5.56" y="12">i</tspan><tspan class="cls-5" x="7.9" y="12">v</tspan><tspan x="12.61" y="12">e th</tspan><tspan class="cls-5" x="28.6" y="12">r</tspan><tspan class="cls-29" x="31.77" y="12">ough facilities or </tspan><tspan class="cls-15" x="102.91" y="12">w</tspan><tspan x="110.23" y="12">alk in facilities</tspan></text><rect class="cls-1" x="100.36" y="335.59" width="188.72" height="28.33" rx="11.75"/><text class="cls-3" transform="translate(87.3 484.57)">Not <tspan class="cls-30" x="17.5" y="0">F</tspan><tspan x="22.11" y="0">inished </tspan><tspan class="cls-4" x="54.62" y="0">S</tspan><tspan x="59.61" y="0">ea</tspan><tspan class="cls-5" x="69.44" y="0">r</tspan><tspan x="72.61" y="0">ching</tspan></text><rect class="cls-1" x="78.55" y="468.31" width="113.79" height="28.33" rx="11.75"/><text class="cls-3" transform="translate(311.87 588.03)"><tspan class="cls-30">F</tspan><tspan x="4.61" y="0">inish </tspan><tspan x="-8.06" y="12">sea</tspan><tspan class="cls-5" x="5.73" y="12">r</tspan><tspan x="8.9" y="12">ching</tspan></text><rect class="cls-1" x="294.27" y="572.76" width="60.47" height="38.99" rx="11.75"/><text/><polyline class="cls-1" points="82.09 415.57 61.23 415.57 61.23 345.56 93.18 345.56"/><polygon class="cls-2" points="91.72 350.54 100.36 345.56 91.72 340.57 91.72 350.54"/><polyline class="cls-1" points="80.79 425.66 27.86 425.66 27.86 234.21 124.3 234.21"/><polygon class="cls-2" points="122.84 239.2 131.48 234.21 122.84 229.22 122.84 239.2"/><polyline class="cls-1" points="82.09 435.74 12.22 435.74 12.22 165.53 45.18 165.53"/><polygon class="cls-2" points="43.72 170.52 52.35 165.53 43.72 160.54 43.72 170.52"/></svg>