<?xml version="1.0" encoding="utf-8"?>
<!-- Generator: Adobe Illustrator 24.3.0, SVG Export Plug-In . SVG Version: 6.00 Build 0)  -->
<svg version="1.1" id="Layer_1" xmlns="http://www.w3.org/2000/svg" xmlns:xlink="http://www.w3.org/1999/xlink" x="0px" y="0px"
	 viewBox="0 0 841.9 595.3" style="enable-background:new 0 0 841.9 595.3;" xml:space="preserve">
<style type="text/css">
	.st0{fill:#FEF8C3;}
	.st1{fill:#F2E765;}
	.st2{fill:#231F20;}
	.st3{fill:none;}
	.st4{fill:#DDD327;}
	.st5{font-family:'Avenir-Medium';}
	.st6{font-size:22px;}
	.st7{fill:#FEF494;stroke:#231F20;stroke-miterlimit:10;}
	.st8{fill:#F8F1B7;stroke:#231F20;stroke-miterlimit:10;}
	.st9{font-size:14px;}
	.st10{font-size:18px;}
	.st11{fill:none;stroke:#231F20;stroke-width:0.75;stroke-miterlimit:10;}
	.st12{font-size:10px;}
	.st13{font-family:'MyriadPro-Regular';}
	.st14{font-size:12px;}
	.st15{fill:none;stroke:#231F20;stroke-miterlimit:10;}
	.st16{display:none;}
	.st17{display:inline;fill:#231F20;}
</style>
<circle class="st0" cx="454.9" cy="293.6" r="265.8"/>
<circle class="st1" cx="454.9" cy="293.6" r="166.9"/>
<circle class="st2" cx="454.9" cy="298.6" r="100.5"/>
<path id="SVGID_x5F_1_x5F_" class="st3" d="M517.9,251.4c26.1,34.8,19,84.1-15.7,110.2s-84.1,19-110.2-15.7
	c-26.1-34.8-19-84.1,15.7-110.2S491.8,216.6,517.9,251.4z"/>
<text><textPath  xlink:href="#SVGID_x5F_1_x5F_" startOffset="67.4527%">
<tspan  class="st13 st9" style="fill:#FFFFFF;">Alpha Builders COVID-19 Victoria based information website</tspan></textPath>
</text>
<circle class="st4" cx="454.9" cy="298.6" r="71.1"/>
<rect x="383.8" y="265.8" class="st3" width="142.2" height="82.2"/>
<text transform="matrix(1 0 0 1 404.205 282.3898)"><tspan x="0" y="0" class="st2 st5 st6">COVID-19</tspan><tspan x="0" y="26.4" class="st2 st5 st6">VICTORIA</tspan><tspan x="4.3" y="52.8" class="st2 st5 st6">WEBSITE</tspan></text>
<circle class="st7" cx="81" cy="257.2" r="56.9"/>
<rect x="33.4" y="239.5" class="st3" width="93.1" height="22.3"/>
<text transform="matrix(1 0 0 1 52.6923 256.1066)" class="st2 st5 st6">USER</text>
<circle class="st7" cx="81" cy="430" r="56.9"/>
<rect x="32.4" y="411.3" class="st3" width="93.1" height="22.3"/>
<text transform="matrix(1 0 0 1 51.6922 427.8904)" class="st2 st5 st6">USER</text>
<circle class="st7" cx="179.7" cy="529.2" r="56.9"/>
<rect x="133.2" y="500.8" class="st3" width="93.1" height="22.3"/>
<text transform="matrix(1 0 0 1 152.4061 517.4037)" class="st2 st5 st6">USER</text>
<circle class="st7" cx="611.2" cy="511" r="56.9"/>
<path id="SVGID_x5F_2_x5F_" class="st3" d="M554.3,540.9c-16.2-30.9-4.3-69,26.6-85.2c30.9-16.2,69-4.3,85.2,26.6s4.3,69-26.6,85.2
	C608.7,583.6,570.5,571.8,554.3,540.9z"/>
<text><textPath  xlink:href="#SVGID_x5F_2_x5F_" startOffset="18684.1152%">
<tspan  class="st2 st5 st9">ABC, NINE &amp; THE AGE for example</tspan></textPath>
</text>
<rect x="563.7" y="502.2" class="st3" width="93.1" height="22.3"/>
<text transform="matrix(1 0 0 1 574.585 518.8389)" class="st2 st5 st6">MEDIA</text>
<path class="st8" d="M305.7,200.5h-70.2c-14,0-25.3-11.3-25.3-25.3v-78c0-14,11.3-25.3,25.3-25.3h70.2c14,0,25.3,11.3,25.3,25.3v78
	C331,189.2,319.7,200.5,305.7,200.5z"/>
<rect x="581.3" y="313.2" transform="matrix(0.55 -0.8352 0.8352 0.55 -57.9676 675.4909)" class="st3" width="33.1" height="156.7"/>
<text transform="matrix(0.8352 0.55 -0.55 0.8352 550.0055 352.9694)"><tspan x="0" y="0" class="st2 st5 st9">EXCHANGE INFO/ </tspan><tspan x="0.8" y="16.8" class="st2 st5 st9">DATA or REPORTS</tspan></text>
<rect x="633.9" y="274" transform="matrix(0.4294 -0.9031 0.9031 0.4294 58.806 782.163)" class="st3" width="29" height="141"/>
<text transform="matrix(0.9031 0.4295 -0.4295 0.9031 590.617 312.7203)"><tspan x="0" y="0" class="st2 st5 st9">Provides information </tspan><tspan x="38" y="16.8" class="st2 st5 st9">and data</tspan></text>
<rect x="711.9" y="131.4" class="st3" width="111.8" height="30.5"/>
<text transform="matrix(1 0 0 1 718.2906 141.9579)"><tspan x="0" y="0" class="st2 st5 st9">Display outputs </tspan><tspan x="2.5" y="16.8" class="st2 st5 st9">on the website</tspan></text>
<rect x="575.9" y="231.3" class="st3" width="244.8" height="16"/>
<text transform="matrix(1 0 0 1 577.5967 241.9184)" class="st2 st5 st9">Host website on an accessible domain</text>
<path class="st7" d="M336.8,112.8H229.3c-10.6,0-19.1-8.6-19.1-19.1V77.1c0-10.6,8.6-19.1,19.1-19.1h107.5
	c10.6,0,19.1,8.6,19.1,19.1v16.6C355.9,104.2,347.3,112.8,336.8,112.8z"/>
<rect x="435.5" y="131.2" class="st3" width="87.6" height="65.2"/>
<text transform="matrix(1 0 0 1 442.4425 141.8259)"><tspan x="0" y="0" class="st2 st5 st9">Storing and </tspan><tspan x="3.5" y="16.8" class="st2 st5 st9">organizing </tspan><tspan x="-2.6" y="33.6" class="st2 st5 st9">the inputted </tspan><tspan x="22.7" y="50.4" class="st2 st5 st9">data</tspan></text>
<circle class="st7" cx="747.7" cy="434.4" r="56.9"/>
<rect x="701.2" y="408.7" class="st3" width="93.1" height="52.8"/>
<text transform="matrix(1 0 0 1 730.8899 422.3097)"><tspan x="0" y="0" class="st2 st5 st10">Gov </tspan><tspan x="-19" y="21.6" class="st2 st5 st10">websites</tspan></text>
<rect x="219.8" y="74.5" class="st3" width="124.6" height="26.5"/>
<text transform="matrix(1 0 0 1 224.6704 91.0968)" class="st2 st5 st6">DATABASE</text>
<path class="st7" d="M508,124.2H400.5c-10.6,0-19.1-8.6-19.1-19.1v-28c0-10.6,8.6-19.1,19.1-19.1H508c10.6,0,19.1,8.6,19.1,19.1v28
	C527.2,115.7,518.6,124.2,508,124.2z"/>
<rect x="392.1" y="67" class="st3" width="124.6" height="54.1"/>
<text transform="matrix(1 0 0 1 427.0887 83.613)"><tspan x="0" y="0" class="st2 st5 st6">USER</tspan><tspan x="-30.2" y="26.4" class="st2 st5 st6">DATABASE</tspan></text>
<path class="st7" d="M609.8,124.2h-42c-10.6,0-19.1-8.6-19.1-19.1v-28c0-10.6,8.6-19.1,19.1-19.1h42c10.6,0,19.1,8.6,19.1,19.1v28
	C628.9,115.7,620.4,124.2,609.8,124.2z"/>
<rect x="556" y="67.5" class="st3" width="64.8" height="49"/>
<text transform="matrix(1 0 0 1 558.8413 84.16)"><tspan x="0" y="0" class="st2 st5 st6">API’s/ </tspan><tspan x="-0.4" y="26.4" class="st2 st5 st6">DATA</tspan></text>
<path class="st7" d="M800.5,223.8H614.7c-10.6,0-19.1-8.6-19.1-19.1v-16.6c0-10.6,8.6-19.1,19.1-19.1h185.8
	c10.6,0,19.1,8.6,19.1,19.1v16.6C819.7,215.3,811.1,223.8,800.5,223.8z"/>
<rect x="603.8" y="184.8" class="st3" width="206.8" height="26.5"/>
<text transform="matrix(1 0 0 1 605.3882 201.4662)" class="st2 st5 st6">Website Host - AWS</text>
<path class="st7" d="M800.5,335.6h-73.8c-10.6,0-19.1-8.6-19.1-19.1V272c0-10.6,8.6-19.1,19.1-19.1h73.8c10.6,0,19.1,8.6,19.1,19.1
	v44.4C819.7,327,811.1,335.6,800.5,335.6z"/>
<rect x="718.3" y="269.7" class="st3" width="92.3" height="53.4"/>
<text transform="matrix(1 0 0 1 721.879 286.3518)"><tspan x="0" y="0" class="st2 st5 st6">Location </tspan><tspan x="1.9" y="26.4" class="st2 st5 st6">Servcies</tspan></text>
<path class="st7" d="M800.5,124.2H665.4c-10.6,0-19.1-8.6-19.1-19.1v-28c0-10.6,8.6-19.1,19.1-19.1h135.1c10.6,0,19.1,8.6,19.1,19.1
	v28C819.7,115.7,811.1,124.2,800.5,124.2z"/>
<rect x="647.3" y="67.1" class="st3" width="166.9" height="47"/>
<text transform="matrix(1 0 0 1 652.956 83.71)"><tspan x="0" y="0" class="st2 st5 st6">EXTERNAL RSS</tspan><tspan x="8.6" y="26.4" class="st2 st5 st6">NEWS FEEDS</tspan></text>
<g>
	<g>
		<line class="st11" x1="137.9" y1="257.2" x2="345.4" y2="281.3"/>
		<g>
			<path class="st2" d="M354.4,282.4c-4.4,1.1-10,3.1-13.6,5.6l3.4-6.8l-1.7-7.4C345.4,277,350.4,280.3,354.4,282.4z"/>
		</g>
	</g>
</g>
<g>
	<g>
		<line class="st11" x1="137.1" y1="403.3" x2="348.4" y2="325.6"/>
		<g>
			<path class="st2" d="M356.9,322.5c-3.5,3-7.5,7.3-9.6,11.1l0-7.6l-4.9-5.8C346.4,321.8,352.3,322.5,356.9,322.5z"/>
		</g>
	</g>
</g>
<rect x="232.5" y="160.9" transform="matrix(0.1198 -0.9928 0.9928 0.1198 -45.2702 466.5485)" class="st3" width="16" height="195.8"/>
<text transform="matrix(0.9928 0.1198 -0.1198 0.9928 145.6239 249.9309)" class="st2 st5 st9">Input local data - eg postcode</text>
<rect x="131.4" y="361.8" transform="matrix(0.9445 -0.3285 0.3285 0.9445 -110.4887 85.4443)" class="st3" width="132.4" height="16"/>
<text transform="matrix(0.9445 -0.3285 0.3285 0.9445 148.4591 389.6549)" class="st2 st5 st9">Case predictions</text>
<rect x="140.3" y="371" transform="matrix(0.9212 -0.389 0.389 0.9212 -127.4724 126.0355)" class="st3" width="214.4" height="13.6"/>
<text transform="matrix(0.9212 -0.389 0.389 0.9212 156.0284 417.2209)" class="st2 st5 st12">Current rules and regulations for businesses</text>
<rect x="219.3" y="413.4" transform="matrix(0.8008 -0.599 0.599 0.8008 -196.8439 251.0578)" class="st3" width="119.4" height="16"/>
<text transform="matrix(0.8008 -0.599 0.599 0.8008 237.5139 455.6545)" class="st2 st5 st9">Number of cases</text>
<rect x="317.1" y="411.1" transform="matrix(0.4642 -0.8857 0.8857 0.4642 -187.0944 546.2477)" class="st3" width="81.8" height="33.4"/>
<text transform="matrix(0.4642 -0.8857 0.8857 0.4642 338.5808 451.5445)"><tspan x="0" y="0" class="st2 st5 st9">Decisions</tspan><tspan x="-5.3" y="16.8" class="st2 st5 st9">Predictions</tspan></text>
<rect x="474.3" y="393.6" transform="matrix(0.9912 -0.1323 0.1323 0.9912 -53.1675 68.7872)" class="st3" width="33.4" height="81.8"/>
<text transform="matrix(-0.1323 -0.9912 0.9912 -0.1323 489.1942 467.319)"><tspan x="0" y="0" class="st2 st5 st9">COVID-19 </tspan><tspan x="-4.5" y="16.8" class="st2 st5 st9">Information</tspan></text>
<rect x="238.4" y="429.4" transform="matrix(0.7545 -0.6563 0.6563 0.7545 -213.8935 303.0262)" class="st3" width="119.4" height="16"/>
<text transform="matrix(0.7545 -0.6563 0.6563 0.7545 271.9261 463.5481)" class="st2 st5 st9">Restrictions</text>
<g>
	<g>
		<line class="st11" x1="520.4" y1="374.9" x2="588" y2="450"/>
		<g>
			<path class="st2" d="M594.1,456.7c-4-2.1-9.6-4.2-13.9-4.7l7-2.9l3.6-6.7C590.9,446.7,592.4,452.5,594.1,456.7z"/>
		</g>
	</g>
</g>
<g>
	<g>
		<line class="st11" x1="368.4" y1="365.8" x2="215" y2="482.6"/>
		<g>
			<path class="st2" d="M375.6,360.3c-4.3,1.3-10.2,2.4-14.5,2.1l6.4,4.1l2.3,7.2C370.6,369.5,373.1,364.1,375.6,360.3z"/>
		</g>
	</g>
</g>
<g>
	<g>
		<line class="st11" x1="396.2" y1="391" x2="354.4" y2="475.4"/>
		<g>
			<path class="st2" d="M400.2,382.9c-3.3,3.1-8.1,6.7-12.1,8.3l7.5,0.8l5.2,5.5C399.8,393.4,399.7,387.4,400.2,382.9z"/>
		</g>
	</g>
</g>
<g>
	<g>
		<line class="st11" x1="462.3" y1="408.2" x2="466.4" y2="473.2"/>
		<g>
			<path class="st2" d="M461.7,399.2c-1.3,4.4-3.7,9.8-6.3,13.2l7-3l7.3,2.1C466.6,408.4,463.6,403.3,461.7,399.2z"/>
		</g>
	</g>
</g>
<g>
	<g>
		<line class="st11" x1="557.4" y1="121.1" x2="508.5" y2="203"/>
		<g>
			<path class="st2" d="M503.8,210.8c0.8-4.5,1.2-10.4,0.4-14.7l4.8,5.9l7.4,1.4C512.4,204.8,507.4,207.9,503.8,210.8z"/>
		</g>
	</g>
</g>
<g>
	<g>
		<line class="st11" x1="698.2" y1="291.8" x2="564.5" y2="286.7"/>
		<g>
			<path class="st2" d="M707.2,292.2c-4.2-1.7-9.4-4.6-12.5-7.6l2.3,7.2l-2.9,7C697.5,296.1,702.9,293.6,707.2,292.2z"/>
		</g>
		<g>
			<path class="st2" d="M555.5,286.4c4.3-1.4,9.7-3.9,13.1-6.6l-2.9,7l2.3,7.2C564.8,291,559.7,288.1,555.5,286.4z"/>
		</g>
	</g>
</g>
<g>
	<g>
		<line class="st11" x1="345.7" y1="110.5" x2="407.4" y2="200.7"/>
		<g>
			<path class="st2" d="M412.5,208.2c-3.7-2.6-8.9-5.5-13.1-6.6l7.3-1.9l4.4-6.2C410.6,197.9,411.4,203.8,412.5,208.2z"/>
		</g>
	</g>
</g>
<g>
	<g>
		<line class="st11" x1="423.2" y1="133.1" x2="434.2" y2="191"/>
		<g>
			<path class="st2" d="M421.5,124.2c-0.8,4.5-2.4,10.2-4.6,13.9l6.5-3.9l7.5,1.2C427.5,132.8,423.8,128.1,421.5,124.2z"/>
		</g>
		<g>
			<path class="st2" d="M435.9,199.9c-2.4-3.9-6-8.6-9.4-11.3l7.5,1.2l6.5-3.9C438.4,189.7,436.7,195.4,435.9,199.9z"/>
		</g>
	</g>
</g>
<g>
	<g>
		<line class="st11" x1="646.3" y1="112.1" x2="528.8" y2="217.8"/>
		<g>
			<path class="st2" d="M522.1,223.8c2.1-4,4.2-9.6,4.8-13.9l2.9,7l6.7,3.6C532,220.6,526.3,222.2,522.1,223.8z"/>
		</g>
	</g>
</g>
<g>
	<g>
		<line class="st11" x1="703.1" y1="399.2" x2="562.3" y2="323.8"/>
		<g>
			<path class="st2" d="M554.3,319.5c4.5,0.6,10.4,0.7,14.7-0.2l-5.6,5.1l-1.1,7.5C560.7,327.8,557.3,322.9,554.3,319.5z"/>
		</g>
	</g>
</g>
<rect x="227.3" y="118.5" class="st3" width="89.1" height="72.8"/>
<text transform="matrix(1 0 0 1 227.333 126.9845)"><tspan x="0" y="0" class="st2 st13 st14">Internal database </tspan><tspan x="0" y="14.4" class="st2 st13 st14">file created from </tspan><tspan x="0" y="28.8" class="st2 st13 st14">external database </tspan><tspan x="0" y="43.2" class="st2 st13 st14">file information </tspan><tspan x="0" y="57.6" class="st2 st13 st14">for use with map</tspan></text>
<rect x="35.5" y="433.4" class="st3" width="89.7" height="17.7"/>
<text transform="matrix(1 0 0 1 50.2428 443.3535)" class="st2 st13 st9">Workforce</text>
<rect x="134.9" y="524.3" class="st3" width="89.7" height="44"/>
<text transform="matrix(1 0 0 1 151.5967 534.2399)"><tspan x="0" y="0" class="st2 st13 st9">Residents</tspan><tspan x="4.3" y="16.8" class="st2 st13 st9">Families</tspan><tspan x="2.1" y="33.6" class="st2 st13 st9">Students</tspan></text>
<circle class="st7" cx="335.9" cy="529.2" r="56.9"/>
<rect x="289.3" y="507.8" class="st3" width="93.1" height="22.3"/>
<text transform="matrix(1 0 0 1 308.5678 524.4041)" class="st2 st5 st6">USER</text>
<rect x="292" y="532.3" class="st3" width="89.7" height="32.6"/>
<text transform="matrix(1 0 0 1 297.5094 542.2404)"><tspan x="0" y="0" class="st2 st13 st9">Government/</tspan><tspan x="20.1" y="16.8" class="st2 st13 st9">Health</tspan></text>
<circle class="st7" cx="466.4" cy="530.1" r="56.9"/>
<rect x="419.9" y="508.6" class="st3" width="93.1" height="22.3"/>
<text transform="matrix(1 0 0 1 439.1241 525.2516)" class="st2 st5 st6">USER</text>
<rect x="422.6" y="533.1" class="st3" width="89.7" height="32.6"/>
<text transform="matrix(1 0 0 1 426.9944 543.0879)" class="st2 st13 st9">Administrator</text>
<rect x="36.1" y="264.3" class="st3" width="89.7" height="29.3"/>
<text transform="matrix(1 0 0 1 54.9684 274.2396)"><tspan x="0" y="0" class="st2 st13 st9">Victorian </tspan><tspan x="3.2" y="16.8" class="st2 st13 st9">Citizens</tspan></text>
<g>
	<g>
		<path class="st15" d="M366.3,251.2c0,0-105.8-35.1-224.8-23.2"/>
		<g>
			<path class="st2" d="M132.5,229c4.1-2,9.1-5.2,12.1-8.3l-1.9,7.3l3.2,6.9C142.4,232.3,136.9,230.2,132.5,229z"/>
		</g>
	</g>
</g>
<g>
	<g>
		<path class="st15" d="M354.4,298.6c0,0-100.8,25.5-244.9,12.9"/>
		<g>
			<path class="st2" d="M100.5,310.7c4.4-1.2,9.9-3.5,13.4-6.1l-3.2,6.9l2,7.3C109.7,315.7,104.6,312.6,100.5,310.7z"/>
		</g>
	</g>
</g>
<path id="SVGID_x5F_3_x5F_" class="st3" d="M130,222.8c94.2-11.6,188.7,2,233.8,17.6"/>
<text><textPath  xlink:href="#SVGID_x5F_3_x5F_" startOffset="5.278%">
<tspan  class="st2 st5 st9">Quickly see local data</tspan></textPath>
</text>
<path id="SVGID_x5F_4_x5F_" class="st3" d="M105.3,302.1c83.2,11.4,160.9,4.8,239.7-5"/>
<text><textPath  xlink:href="#SVGID_x5F_4_x5F_" startOffset="5.278%">
<tspan  class="st2 st5 st9">Access chat bot &amp; exchange info</tspan></textPath>
</text>
<rect x="179.7" y="12.2" class="st3" width="650.2" height="29.8"/>
<text transform="matrix(1 0 0 1 179.7079 20.6885)" class="st16"><tspan x="0" y="0" class="st17 st13 st14">Context Diagrams - Provide a view of the system or product in its environment, including the people and systems it interacts with</tspan><tspan x="0" y="14.4" class="st17 st13 st14">https://www.linkedin.com/learning/search?keywords=system%20context%20diagram&amp;u=2104756</tspan></text>
<rect x="20.6" y="141.5" class="st3" width="193.9" height="46.2"/>
<text transform="matrix(1 0 0 1 20.6219 149.9936)" class="st16"><tspan x="0" y="0" class="st17 st13 st14">A context diagram helps teams </tspan><tspan x="0" y="14.4" class="st17 st13 st14">identify scenarios, users, user goals </tspan><tspan x="0" y="28.8" class="st17 st13 st14">and external systems</tspan></text>
<g>
	<polygon class="st4" points="24.2,58.1 42.1,59.8 48.6,68.8 53,67.9 61.1,71.4 62.3,76.9 80.2,91.8 87.6,89.4 129.4,91 
		136.8,105.2 162.9,116.7 156.6,122 139.7,123.8 129.1,135.5 107,139.6 86.9,132.8 86.1,124.9 77.9,127.8 78.4,130.7 65.8,139.6 
		24.3,126.8 	"/>
	<g>
		<path class="st2" d="M50.6,119.2l-2.9,2.6l-1.7-2l4.7-4h2.9v14.4h-2.9V119.2z"/>
		<path class="st2" d="M63.1,125c-0.2,0-0.3,0.1-0.5,0.1c-0.2,0-0.3,0-0.5,0c-0.7,0-1.3-0.1-1.9-0.4c-0.6-0.2-1-0.6-1.4-1
			c-0.4-0.4-0.7-0.9-0.9-1.5c-0.2-0.6-0.3-1.2-0.3-1.8c0-0.7,0.1-1.4,0.4-2c0.3-0.6,0.7-1.1,1.1-1.6c0.5-0.4,1.1-0.8,1.7-1
			c0.7-0.2,1.4-0.4,2.1-0.4c0.7,0,1.5,0.1,2.1,0.4c0.7,0.2,1.2,0.6,1.7,1c0.5,0.4,0.9,1,1.1,1.6c0.3,0.6,0.4,1.3,0.4,2
			c0,0.5,0,1-0.1,1.4c-0.1,0.4-0.2,0.8-0.4,1.2c-0.2,0.4-0.3,0.7-0.6,1.1c-0.2,0.3-0.4,0.7-0.7,1.1l-3.2,4.9h-3.7L63.1,125z
			 M60.6,120.6c0,0.7,0.2,1.2,0.6,1.6c0.4,0.4,1,0.6,1.7,0.6c0.7,0,1.3-0.2,1.7-0.6c0.4-0.4,0.6-1,0.6-1.6c0-0.7-0.2-1.2-0.6-1.6
			c-0.4-0.4-1-0.6-1.7-0.6c-0.7,0-1.3,0.2-1.7,0.6C60.8,119.4,60.6,119.9,60.6,120.6z"/>
	</g>
	<g>
		<path class="st2" d="M26.7,95.6h4.4l4.4,11.6h0L40,95.6h4.2l-7.3,17.6h-3.1L26.7,95.6z"/>
		<path class="st2" d="M45.9,95.6h3.9v17.6h-3.9V95.6z"/>
		<path class="st2" d="M64.9,100.1c-0.4-0.5-0.9-0.8-1.4-1.1c-0.6-0.2-1.2-0.4-1.9-0.4c-0.7,0-1.4,0.1-2,0.4
			c-0.6,0.3-1.2,0.7-1.6,1.2c-0.5,0.5-0.8,1.1-1.1,1.8c-0.3,0.7-0.4,1.5-0.4,2.3c0,0.8,0.1,1.6,0.4,2.3c0.3,0.7,0.6,1.3,1.1,1.8
			c0.4,0.5,1,0.9,1.6,1.2c0.6,0.3,1.3,0.4,2,0.4c0.8,0,1.5-0.2,2.1-0.5c0.6-0.3,1.1-0.8,1.5-1.4l3.2,2.4c-0.7,1-1.7,1.8-2.8,2.3
			c-1.1,0.5-2.3,0.7-3.5,0.7c-1.4,0-2.6-0.2-3.8-0.6c-1.2-0.4-2.2-1-3-1.9c-0.8-0.8-1.5-1.8-2-2.9s-0.7-2.4-0.7-3.8
			c0-1.4,0.2-2.7,0.7-3.8c0.5-1.1,1.1-2.1,2-2.9c0.8-0.8,1.9-1.4,3-1.9c1.2-0.4,2.4-0.6,3.8-0.6c0.5,0,1,0,1.6,0.1
			c0.5,0.1,1.1,0.2,1.6,0.4c0.5,0.2,1,0.5,1.5,0.8c0.5,0.3,0.9,0.7,1.3,1.2L64.9,100.1z"/>
		<path class="st2" d="M69.5,104.4c0-1.4,0.2-2.7,0.7-3.8c0.5-1.1,1.1-2.1,2-2.9c0.8-0.8,1.9-1.4,3-1.9c1.2-0.4,2.4-0.6,3.8-0.6
			c1.4,0,2.6,0.2,3.8,0.6c1.2,0.4,2.2,1,3,1.9c0.8,0.8,1.5,1.8,2,2.9c0.5,1.1,0.7,2.4,0.7,3.8c0,1.4-0.2,2.7-0.7,3.8
			c-0.5,1.1-1.1,2.1-2,2.9c-0.8,0.8-1.9,1.4-3,1.9c-1.2,0.4-2.4,0.6-3.8,0.6c-1.4,0-2.6-0.2-3.8-0.6c-1.2-0.4-2.2-1-3-1.9
			c-0.8-0.8-1.5-1.8-2-2.9S69.5,105.8,69.5,104.4z M73.5,104.4c0,0.8,0.1,1.6,0.4,2.3c0.3,0.7,0.6,1.3,1.1,1.8
			c0.5,0.5,1.1,0.9,1.7,1.2c0.7,0.3,1.4,0.4,2.3,0.4c0.8,0,1.6-0.1,2.3-0.4c0.7-0.3,1.2-0.7,1.7-1.2c0.5-0.5,0.9-1.1,1.1-1.8
			c0.3-0.7,0.4-1.4,0.4-2.3c0-0.8-0.1-1.6-0.4-2.3c-0.3-0.7-0.6-1.3-1.1-1.8c-0.5-0.5-1.1-0.9-1.7-1.2c-0.7-0.3-1.4-0.4-2.3-0.4
			c-0.8,0-1.6,0.1-2.3,0.4c-0.7,0.3-1.2,0.7-1.7,1.2c-0.5,0.5-0.9,1.1-1.1,1.8C73.6,102.8,73.5,103.6,73.5,104.4z"/>
		<path class="st2" d="M89.4,95.6h4.4l4.4,11.6h0l4.4-11.6h4.2l-7.3,17.6h-3.1L89.4,95.6z"/>
		<path class="st2" d="M108.6,95.6h3.9v17.6h-3.9V95.6z"/>
		<path class="st2" d="M116,95.6h5.8c1.4,0,2.8,0.2,4,0.5c1.3,0.3,2.4,0.8,3.3,1.5c0.9,0.7,1.7,1.6,2.3,2.8c0.6,1.1,0.8,2.5,0.8,4.1
			c0,1.4-0.3,2.7-0.8,3.8c-0.5,1.1-1.3,2-2.2,2.7c-0.9,0.7-2,1.3-3.2,1.7c-1.2,0.4-2.4,0.6-3.8,0.6H116V95.6z M119.9,109.6h2
			c0.9,0,1.7-0.1,2.5-0.3c0.8-0.2,1.4-0.5,2-0.9c0.6-0.4,1-1,1.3-1.7c0.3-0.7,0.5-1.5,0.5-2.5c0-0.9-0.2-1.6-0.5-2.3
			c-0.3-0.6-0.8-1.2-1.3-1.6c-0.5-0.4-1.2-0.7-1.9-0.9c-0.7-0.2-1.5-0.3-2.3-0.3h-2.3V109.6z"/>
	</g>
	<g>
		<path class="st2" d="M69.5,115.8h2.1c0.2,0,0.4,0,0.6,0.1c0.2,0,0.4,0.1,0.6,0.2c0.2,0.1,0.4,0.2,0.6,0.4c0.2,0.1,0.3,0.3,0.5,0.5
			c0.1,0.2,0.2,0.4,0.3,0.7c0.1,0.3,0.1,0.6,0.1,0.9c0,0.3,0,0.6-0.1,0.9c-0.1,0.3-0.2,0.5-0.3,0.7c-0.1,0.2-0.3,0.4-0.5,0.5
			c-0.2,0.1-0.4,0.3-0.6,0.4c-0.2,0.1-0.4,0.2-0.6,0.2c-0.2,0-0.4,0.1-0.6,0.1h-2.1V115.8z M70.1,120.7h1.2c0.3,0,0.6,0,0.9-0.1
			c0.3-0.1,0.5-0.2,0.7-0.4c0.2-0.2,0.4-0.4,0.5-0.7c0.1-0.3,0.2-0.6,0.2-1c0-0.4-0.1-0.7-0.2-1c-0.1-0.3-0.3-0.5-0.5-0.7
			c-0.2-0.2-0.4-0.3-0.7-0.4c-0.3-0.1-0.6-0.1-0.9-0.1h-1.2V120.7z"/>
		<path class="st2" d="M77.1,115.8h0.6l2.3,5.5h-0.8l-0.6-1.3H76l-0.6,1.3h-0.7L77.1,115.8z M77.4,116.7L77.4,116.7l-1.2,2.7h2.2
			L77.4,116.7z"/>
		<path class="st2" d="M83.7,116.4h-1.8v4.9h-0.6v-4.9h-1.8v-0.6h4.3V116.4z"/>
		<path class="st2" d="M85.5,115.8h0.6l2.3,5.5h-0.8l-0.6-1.3h-2.7l-0.6,1.3h-0.7L85.5,115.8z M85.8,116.7L85.8,116.7l-1.2,2.7h2.2
			L85.8,116.7z"/>
	</g>
</g>
</svg>
